<?xml version="1.0" standalone="no"?>
<!DOCTYPE svg PUBLIC "-//W3C//DTD SVG 20010904//EN"
 "http://www.w3.org/TR/2001/REC-SVG-20010904/DTD/svg10.dtd">
<svg version="1.0" xmlns="http://www.w3.org/2000/svg"
 width="500.000000pt" height="500.000000pt" viewBox="0 0 500.000000 500.000000"
 preserveAspectRatio="xMidYMid meet">

<g transform="translate(0.000000,500.000000) scale(0.100000,-0.100000)"
fill="#000000" stroke="none">
<path d="M3149 4031 c-34 -33 -47 -53 -45 -68 6 -28 86 -102 111 -103 27 0
114 89 110 113 -5 25 -74 92 -103 100 -19 4 -34 -4 -73 -42z m21 -111 c0 -5
-2 -10 -4 -10 -3 0 -8 5 -11 10 -3 6 -1 10 4 10 6 0 11 -4 11 -10z"/>
<path d="M2275 3595 c-5 -2 -23 -6 -38 -10 -20 -4 -112 -89 -300 -278 -301
-302 -320 -323 -311 -350 3 -11 2 -17 -3 -14 -5 3 -9 -10 -9 -28 0 -23 3 -30
9 -22 5 7 6 2 3 -15 -3 -15 -1 -30 4 -33 6 -4 8 -10 5 -15 -3 -4 3 -14 12 -21
14 -12 16 -12 8 0 -5 10 -4 12 4 7 6 -4 9 -11 6 -16 -13 -22 27 -56 59 -51 5
1 4 -5 -3 -13 -11 -13 -9 -15 9 -11 19 4 20 2 8 -12 -9 -12 -10 -15 0 -9 8 5
15 -1 21 -16 6 -13 10 -18 11 -13 0 6 4 4 9 -4 8 -13 12 -13 28 0 17 13 17 13
3 -5 -13 -16 -12 -20 9 -37 13 -11 19 -19 15 -20 -5 0 2 -5 16 -11 14 -6 29
-10 34 -9 5 1 4 -5 -3 -13 -11 -13 -9 -15 9 -11 19 4 20 2 8 -12 -9 -12 -10
-15 0 -9 8 5 15 -1 21 -16 6 -13 10 -18 11 -13 0 6 4 4 9 -4 8 -13 12 -13 28
0 17 13 17 13 3 -5 -13 -16 -12 -20 9 -37 13 -11 19 -19 15 -20 -5 0 2 -5 16
-11 14 -6 29 -10 34 -9 5 1 4 -5 -3 -13 -11 -13 -9 -15 9 -11 19 4 20 2 8 -12
-9 -12 -10 -15 0 -9 8 5 15 -1 21 -16 6 -13 10 -18 11 -13 0 6 4 4 9 -4 8 -13
12 -13 28 0 17 13 17 13 3 -5 -13 -16 -12 -20 7 -36 12 -10 19 -20 16 -24 -4
-3 2 -6 13 -6 10 0 26 -5 34 -11 12 -9 11 -10 -5 -5 -19 6 -19 5 -2 -8 11 -8
27 -13 38 -11 12 3 19 -2 19 -12 0 -13 9 -14 53 -10 60 6 109 25 100 40 -3 6
-1 7 6 3 18 -11 344 322 336 343 -5 12 -3 13 5 4 9 -8 17 -7 31 5 18 15 17 38
-2 26 -5 -3 -8 -2 -7 3 5 16 -41 65 -53 57 -7 -4 -9 -3 -5 4 8 13 -28 34 -67
38 -51 6 -111 -36 -192 -135 l-20 -24 25 12 c24 11 24 11 6 -3 -11 -9 -26 -16
-34 -16 -7 0 -11 -4 -8 -9 3 -5 -4 -9 -17 -9 -12 0 -42 -5 -67 -12 -25 -6 -57
-9 -72 -6 -15 3 -28 2 -31 -2 -2 -4 -2 -2 -1 5 4 16 -23 25 -30 10 -3 -7 -5
-6 -5 3 -1 19 -125 142 -134 133 -4 -3 -7 -1 -7 6 0 15 -25 41 -39 41 -6 0
-10 3 -9 8 2 4 -8 20 -22 35 -23 26 -25 27 -37 11 -12 -16 -13 -17 -13 -1 0 9
5 17 11 17 13 0 3 68 -12 86 -18 22 20 111 74 171 28 32 59 64 67 71 13 12 13
13 0 6 -9 -4 -12 -3 -7 2 5 5 12 9 16 9 4 0 22 12 40 28 29 24 31 30 20 45
-12 15 -12 16 2 5 13 -10 19 -10 35 2 19 15 19 15 -1 9 -16 -5 -17 -4 -5 5 8
6 24 11 35 11 16 0 17 2 5 10 -10 6 15 8 72 6 65 -2 94 -7 115 -22 15 -10 33
-19 38 -19 6 0 10 -5 10 -10 0 -16 74 -103 108 -127 24 -17 31 -19 39 -7 8 11
9 10 4 -3 -6 -19 1 -22 44 -18 28 2 75 29 66 37 -10 10 15 32 29 26 9 -3 19 5
26 21 7 14 16 26 21 26 5 0 -8 18 -28 40 -20 22 -41 37 -47 33 -6 -3 -7 -2 -4
4 8 13 -278 295 -322 317 -31 17 -94 27 -116 21z m-601 -631 c3 -8 2 -12 -4
-9 -6 3 -10 10 -10 16 0 14 7 11 14 -7z m1016 -264 c6 -4 -7 -6 -29 -5 -23 1
-44 5 -47 8 -8 8 62 6 76 -3z m-95 -220 c-3 -5 -12 -10 -18 -10 -7 0 -6 4 3
10 19 12 23 12 15 0z m-160 -160 c-3 -5 -12 -10 -18 -10 -7 0 -6 4 3 10 19 12
23 12 15 0z"/>
<path d="M2815 3588 c-28 -15 -67 -57 -83 -88 -7 -15 -10 -17 -7 -5 4 14 -6 8
-30 -19 -39 -43 -40 -46 -22 -65 9 -11 9 -12 0 -7 -9 5 -11 2 -7 -8 9 -22 91
-87 113 -89 11 0 18 -4 16 -8 -3 -3 8 -17 23 -31 78 -73 81 -104 16 -177 -27
-30 -42 -55 -38 -62 5 -8 3 -9 -6 -4 -7 4 -15 3 -19 -2 -7 -10 -81 -48 -96
-48 -5 0 -16 -4 -23 -9 -8 -5 -18 -4 -24 2 -6 6 -16 8 -23 5 -30 -11 -87 35
-209 170 -15 16 -31 25 -38 21 -7 -4 -8 -3 -4 4 7 13 7 13 -34 17 -47 5 -119
-45 -111 -78 1 -5 -2 -6 -7 -3 -12 7 -54 -23 -47 -35 4 -5 1 -9 -4 -9 -15 0
-51 -37 -51 -52 0 -6 -3 -9 -6 -5 -9 8 -48 -41 -63 -80 -12 -29 -11 -36 7 -65
30 -47 235 -244 240 -230 2 7 8 12 13 12 6 0 7 -5 3 -11 -11 -19 69 0 84 19
10 14 10 18 -5 24 -13 6 -11 7 7 4 20 -4 32 2 55 32 17 20 29 40 27 44 -1 5 1
7 6 6 12 -4 51 35 45 45 -3 6 -2 7 4 4 5 -3 33 0 61 7 51 14 85 11 145 -13 21
-8 26 -8 21 0 -4 7 -1 10 7 7 8 -3 14 -9 14 -15 0 -6 33 -46 73 -89 73 -78 75
-79 123 -79 47 0 51 3 118 69 39 38 67 74 64 79 -3 6 -1 7 4 4 13 -8 88 71 97
101 4 12 2 30 -4 42 -6 11 -8 20 -5 20 3 0 -9 16 -26 35 -18 19 -36 32 -41 29
-5 -3 -7 -1 -6 4 4 15 -91 114 -102 107 -5 -3 -8 0 -5 7 3 7 -7 22 -22 33 -14
11 -37 30 -49 43 -13 12 -28 22 -34 22 -5 0 -10 6 -10 14 0 17 -27 29 -33 13
-2 -6 -6 -3 -10 7 -4 10 -3 15 3 11 6 -3 10 3 10 14 0 11 -4 23 -10 26 -5 3
-10 12 -10 18 0 7 4 6 10 -3 9 -13 14 -7 11 12 0 4 6 5 14 2 8 -4 15 -2 15 3
0 13 58 31 101 32 29 0 44 -8 88 -50 29 -27 57 -46 63 -43 7 4 8 3 4 -4 -3 -6
3 -16 15 -22 24 -14 31 -9 127 88 34 35 62 72 62 82 0 26 -55 85 -70 75 -9 -5
-11 -4 -6 4 4 6 2 18 -4 26 -15 18 -34 20 -24 3 4 -7 3 -8 -4 -4 -6 4 -9 13
-6 20 8 21 -56 57 -78 45 -10 -6 -15 -15 -12 -21 4 -7 3 -8 -4 -4 -13 8 -79
-61 -74 -77 1 -4 -2 -6 -7 -3 -5 3 -22 -1 -37 -9 -42 -21 -71 -19 -109 11 -19
14 -39 23 -45 19 -6 -4 -9 -1 -8 7 2 7 -2 12 -8 11 -7 -1 -11 5 -10 13 0 9
-12 26 -29 39 -24 19 -34 22 -50 13z m16 -845 c13 -16 12 -17 -3 -4 -17 13
-22 21 -14 21 2 0 10 -8 17 -17z m189 -73 c8 -5 11 -10 5 -10 -5 0 -17 5 -25
10 -8 5 -10 10 -5 10 6 0 17 -5 25 -10z m-660 -15 c7 -8 9 -15 6 -15 -4 0 -14
7 -22 15 -9 8 -11 15 -6 15 5 0 15 -7 22 -15z"/>
<path d="M1447 1963 c-4 -4 -22 -7 -40 -7 l-32 -1 -3 -266 -2 -265 49 -3 49
-2 -3 105 c-2 58 -7 111 -11 117 -4 8 -3 9 4 5 8 -5 12 2 12 21 l0 28 20 -33
c21 -34 28 -58 9 -32 -8 12 -9 10 -5 -10 4 -14 14 -61 23 -105 17 -87 27 -105
52 -105 13 1 13 3 -3 15 -17 13 -17 15 -4 15 9 0 24 -7 32 -16 9 -9 16 -11 16
-4 0 6 5 8 11 4 14 -8 2 95 -13 114 -6 7 -8 15 -5 18 3 3 2 17 -4 31 -26 70
-30 179 -7 243 22 62 27 90 21 105 -5 13 -3 16 7 10 8 -5 11 -3 8 5 -2 7 -22
13 -45 14 -33 2 -44 -2 -51 -18 -15 -31 -33 -116 -27 -126 3 -4 -1 -11 -7 -13
-10 -4 -9 -6 1 -6 12 -1 11 -4 -1 -18 -9 -10 -18 -27 -21 -38 -3 -14 -5 -11
-6 10 -1 24 -3 27 -12 15 -9 -12 -9 -11 -4 5 4 11 9 54 10 95 3 73 -4 108 -18
93z"/>
<path d="M1793 1953 c-4 -10 -8 -48 -8 -85 0 -36 -3 -61 -7 -55 -4 7 -8 -1 -8
-18 0 -16 -5 -82 -11 -145 -6 -63 -12 -141 -14 -172 l-3 -58 44 0 c24 0 44 3
45 8 0 4 2 16 5 27 2 11 5 30 6 42 2 15 6 19 12 13 6 -6 23 -10 38 -10 29 0
31 -5 28 -52 -1 -27 0 -28 52 -28 34 0 48 3 39 9 -11 7 -11 10 0 15 9 4 10 8
3 11 -6 3 -9 18 -7 33 2 15 0 68 -6 117 -6 50 -12 115 -14 145 -9 121 -19 195
-28 198 -5 2 -7 7 -4 11 2 5 -8 7 -23 5 -66 -7 -109 -7 -120 0 -7 4 -15 0 -19
-11z m99 -149 c4 -38 9 -94 11 -124 3 -30 6 -59 7 -65 6 -26 -2 -35 -30 -35
-17 0 -30 5 -31 13 -1 17 2 87 6 117 2 14 4 58 4 98 1 97 23 94 33 -4z m15
-16 c-3 -7 -5 -2 -5 12 0 14 2 19 5 13 2 -7 2 -19 0 -25z"/>
<path d="M2637 1964 c-3 -3 -42 -6 -86 -5 l-81 1 0 -40 c0 -31 4 -40 18 -41 9
0 27 -2 40 -3 13 -2 25 1 28 6 11 18 33 -13 25 -35 -5 -12 -6 -28 -4 -34 3 -7
0 -13 -6 -13 -6 0 -11 -11 -11 -25 0 -14 -5 -25 -11 -25 -6 0 -9 -7 -5 -15 3
-8 1 -15 -5 -15 -6 0 -9 -7 -5 -15 3 -8 1 -15 -5 -15 -6 0 -9 -7 -5 -15 3 -8
2 -15 -2 -15 -12 0 -56 -140 -57 -182 -1 -21 4 -38 9 -38 6 0 4 -5 -4 -10 -11
-7 14 -10 81 -9 53 1 101 -1 107 -5 14 -9 29 22 28 58 -1 27 -3 28 -54 30 -29
0 -52 -3 -52 -9 0 -5 -4 -4 -9 4 -9 14 -1 49 27 111 8 19 15 47 15 62 0 15 4
25 8 23 8 -5 41 81 40 108 0 9 4 17 10 17 5 0 9 11 9 25 0 14 3 25 8 25 12 0
13 72 1 86 -14 17 -33 18 -23 2 6 -10 5 -10 -8 -1 -8 7 -18 10 -21 7z m3 -100
c0 -2 -7 -4 -15 -4 -8 0 -15 4 -15 10 0 5 7 7 15 4 8 -4 15 -8 15 -10z"/>
<path d="M2882 1953 c-24 -12 -30 -18 -20 -24 10 -7 9 -9 -5 -9 -30 0 -37 -45
-38 -225 -1 -178 5 -230 23 -204 7 10 8 8 4 -7 -6 -21 8 -38 49 -59 32 -17
131 -3 119 16 -3 5 1 6 9 3 9 -3 21 8 33 33 15 32 18 64 18 215 1 97 -3 174
-7 171 -5 -3 -7 5 -5 18 2 15 -2 23 -9 22 -7 -2 -10 3 -7 11 11 28 -78 64
-105 42 -11 -8 -13 -8 -7 2 10 17 -12 15 -52 -5z m87 -65 c9 -41 15 -347 7
-365 -5 -12 -17 -23 -26 -26 -30 -8 -39 36 -42 201 l-3 154 28 24 c33 28 33
28 36 12z m61 -58 c0 -5 -2 -10 -4 -10 -3 0 -8 5 -11 10 -3 6 -1 10 4 10 6 0
11 -4 11 -10z m-173 -307 c-3 -10 -5 -4 -5 12 0 17 2 24 5 18 2 -7 2 -21 0
-30z"/>
<path d="M3474 1949 c-4 -13 -9 -37 -10 -54 -6 -63 -33 -236 -39 -252 -2 -7
-9 -13 -14 -13 -6 0 -8 7 -5 15 4 8 2 15 -2 15 -5 0 -10 26 -11 58 0 31 -3 73
-6 92 -3 19 -8 61 -12 93 l-8 58 -76 -3 -76 -3 -2 -260 c-1 -190 2 -262 10
-267 18 -11 69 -10 62 2 -3 6 -3 10 2 10 4 0 9 66 10 148 1 81 2 164 2 185 1
27 5 37 14 34 6 -2 11 -15 9 -28 -2 -13 1 -49 7 -79 6 -30 18 -102 27 -160 16
-100 33 -160 34 -116 0 13 4 16 13 9 6 -5 24 -10 40 -11 19 -1 27 3 28 16 0 9
2 25 4 35 7 40 24 153 24 167 0 8 7 46 15 85 8 38 12 74 9 80 -3 5 -1 5 6 -1
9 -8 12 -64 12 -192 0 -146 3 -183 14 -192 11 -9 15 -9 15 -1 0 6 9 11 20 11
11 0 20 -5 20 -11 0 -5 5 -7 10 -4 6 4 10 106 10 275 l0 268 -61 4 c-34 1 -63
-1 -66 -6 -3 -4 -9 -3 -13 4 -5 9 -10 5 -16 -11z m3 -391 c-3 -8 -6 -5 -6 6
-1 11 2 17 5 13 3 -3 4 -12 1 -19z"/>
<path d="M2145 1950 c-12 -19 -3 -510 9 -510 6 0 4 -4 -3 -9 -10 -6 21 -11 88
-13 111 -3 122 1 119 46 -3 29 -4 30 -68 30 l-45 1 -3 233 -2 232 -45 0 c-24
0 -47 -4 -50 -10z"/>
<path d="M2205 1128 c-22 -12 -35 -28 -35 -43 0 -5 7 1 16 14 13 18 24 22 51
19 31 -4 33 -3 17 9 -21 16 -23 16 -49 1z"/>
<path d="M2560 1131 c0 -6 4 -13 10 -16 6 -3 7 1 4 9 -7 18 -14 21 -14 7z"/>
<path d="M2707 1133 c-10 -10 -8 -35 2 -29 5 4 19 -6 31 -21 17 -22 18 -23 8
-4 -29 53 -35 61 -41 54z"/>
<path d="M2782 1093 c1 -22 -3 -38 -10 -41 -10 -3 -10 -7 -1 -18 20 -24 25
-16 27 41 0 30 -3 55 -9 55 -5 0 -9 -17 -7 -37z"/>
<path d="M2020 1101 c0 -6 4 -13 10 -16 6 -3 7 1 4 9 -7 18 -14 21 -14 7z"/>
<path d="M2546 1095 c-9 -26 -7 -32 5 -12 6 10 9 21 6 23 -2 3 -7 -2 -11 -11z"/>
<path d="M2940 1105 c0 -5 5 -17 10 -25 5 -8 10 -10 10 -5 0 6 -5 17 -10 25
-5 8 -10 11 -10 5z"/>
<path d="M2281 1084 c0 -11 3 -14 6 -6 3 7 2 16 -1 19 -3 4 -6 -2 -5 -13z"/>
<path d="M2371 1074 c0 -11 3 -14 6 -6 3 7 2 16 -1 19 -3 4 -6 -2 -5 -13z"/>
<path d="M2707 1083 c-9 -9 -9 -63 1 -63 4 0 8 16 9 35 2 37 1 39 -10 28z"/>
<path d="M2069 1068 c7 -10 11 -25 7 -33 -3 -9 -2 -13 4 -10 15 10 12 31 -7
46 -16 13 -17 12 -4 -3z"/>
<path d="M2176 1046 c3 -8 13 -17 21 -20 25 -10 23 -3 -3 17 -18 13 -22 14
-18 3z"/>
<path d="M2580 1049 c-13 -9 -13 -10 2 -6 9 3 19 1 22 -6 2 -7 5 -4 5 6 1 20
-7 21 -29 6z"/>
<path d="M2884 1051 c-2 -2 -4 -11 -4 -20 0 -14 2 -14 10 -1 6 9 21 14 45 12
19 -2 35 0 35 5 0 9 -77 12 -86 4z"/>
<path d="M2377 1019 c7 -7 15 -10 18 -7 3 3 -2 9 -12 12 -14 6 -15 5 -6 -5z"/>
<path d="M3085 880 c-3 -5 -1 -10 4 -10 6 0 11 5 11 10 0 6 -2 10 -4 10 -3 0
-8 -4 -11 -10z"/>
<path d="M2730 871 c0 -5 7 -12 16 -15 14 -5 15 -4 4 9 -14 17 -20 19 -20 6z"/>
<path d="M2968 873 c7 -3 16 -2 19 1 4 3 -2 6 -13 5 -11 0 -14 -3 -6 -6z"/>
<path d="M1851 825 c0 -31 2 -36 9 -23 6 10 7 25 1 40 -9 20 -10 18 -10 -17z"/>
<path d="M2367 843 c-11 -10 -8 -45 2 -38 6 3 9 14 8 25 -1 23 -1 22 -10 13z"/>
<path d="M2446 834 c-3 -9 -2 -23 3 -32 8 -13 10 -10 9 16 -1 36 -3 39 -12 16z"/>
<path d="M2566 833 c-6 -14 -5 -15 5 -6 7 7 10 15 7 18 -3 3 -9 -2 -12 -12z"/>
<path d="M2047 833 c-3 -5 9 -24 25 -43 l31 -35 -19 33 c-10 17 -22 32 -27 32
-4 0 -5 5 -2 10 3 6 4 10 1 10 -3 0 -7 -3 -9 -7z"/>
<path d="M3080 826 c0 -9 5 -16 10 -16 6 0 10 4 10 9 0 6 -4 13 -10 16 -5 3
-10 -1 -10 -9z"/>
<path d="M2613 823 c4 -3 3 -11 -3 -17 -6 -8 -3 -12 11 -13 16 -2 17 1 9 18
-6 10 -14 19 -17 19 -3 0 -3 -3 0 -7z"/>
<path d="M2901 825 c1 -19 18 -51 18 -35 0 8 -4 22 -9 30 -5 8 -9 11 -9 5z"/>
<path d="M2780 812 c0 -5 9 -17 20 -27 11 -10 20 -15 20 -12 0 4 -9 16 -20 27
-11 11 -20 16 -20 12z"/>
<path d="M2550 790 c-6 -11 -8 -20 -6 -20 3 0 10 9 16 20 6 11 8 20 6 20 -3 0
-10 -9 -16 -20z"/>
<path d="M2732 790 c0 -14 2 -19 5 -12 2 6 2 18 0 25 -3 6 -5 1 -5 -13z"/>
<path d="M2020 785 c-7 -9 -11 -17 -9 -20 3 -2 10 5 17 15 14 24 10 26 -8 5z"/>
<path d="M3080 788 c0 -9 5 -20 11 -23 17 -11 18 -2 3 19 -12 17 -14 17 -14 4z"/>
<path d="M1908 763 c7 -3 16 -2 19 1 4 3 -2 6 -13 5 -11 0 -14 -3 -6 -6z"/>
</g>
</svg>
